<svg id="Layer_1" data-name="Layer 1" xmlns="http://www.w3.org/2000/svg" viewBox="0 0 1130 463" style=""><defs><style>.cls-1{fill:none;stroke:#000;stroke-linecap:round;stroke-miterlimit:10;stroke-width:5px;}</style></defs><path d="M372.5,284.34V286H331.38v-1.66h3.4q5.94,0,8.63-2.21,1.69-1.44,1.7-6.93V235.79q0-4.64-.92-6.12a5.6,5.6,0,0,0-2.9-1.93,19.76,19.76,0,0,0-6.51-1.08h-3.4V225H372.5v1.67H369q-5.88,0-8.56,2.2-1.77,1.44-1.77,6.93V275.2c0,3.09.3,5.13.92,6.12a5.64,5.64,0,0,0,3,1.94,19.14,19.14,0,0,0,6.44,1.08Z" class="nyuerkUO_0"></path><path d="M460.13,269.13l2.33.31L454.25,286H379.94v-1.66h3.61q6.09,0,8.7-2.52,1.49-1.44,1.49-6.66V235.79q0-5.72-2-7.15-2.76-2-8.21-2h-3.61V225h43.45v1.67c-5.09,0-8.67.27-10.72.9a8.45,8.45,0,0,0-4.21,2.38c-.75,1-1.13,3.25-.13,6.88v38.34c-1,2.49-.62,4.2.13,5.13a5.14,5.14,0,0,0,2.62,1.39q1.77.45,11,.45h7q11,0,15.5-1a22.82,22.82,0,0,0,8.14-3.67A30.71,30.71,0,0,0,460.13,269.13Z" class="nyuerkUO_1"></path><path d="M547.66,269.13l2.34.31L541.79,286H467.48v-1.66h3.61c4.05,0,7-.84,8.7-2.52q1.48-1.44,1.49-6.66V235.79q0-5.72-2-7.15-2.76-2-8.21-2h-3.61V225h43.45v1.67c-5.09,0-8.67.27-10.72.9a8.4,8.4,0,0,0-4.21,2.38c-.76,1-1.13,3.25-1.13,6.88v38.34c0,2.49.37,4.2,1.13,5.13a5.14,5.14,0,0,0,2.62,1.39q1.77.45,11,.45h7q11,0,15.49-1a22.66,22.66,0,0,0,8.14-3.67A30.38,30.38,0,0,0,547.66,269.13Z" class="nyuerkUO_2"></path><path d="M711.29,226l1.17,13.6h-3a11.16,11.16,0,0,0-2.33-5.13,14.48,14.48,0,0,0-6.41-3.66,38.64,38.64,0,0,0-10.53-1.17H675.38V274c0,3.56.7,5.79,2.1,6.67q3,1.8,9.09,1.8h3.66V284h-44.7v-1.58h3.73q6.69,0,9.49-2.23c1.13-.91,1.71-3,1.71-6.24V229.64H647.79a64.42,64.42,0,0,0-10.5.59,16,16,0,0,0-6.92,3.13A9.37,9.37,0,0,0,627,239.6h-3l1.24-13.6Z" class="nyuerkUO_3"></path><path d="M823,284H794.86l-35.68-27.12q-4,.09-6.45.09l-2.17,0-2.41-.07v16.85q0,5.47,2.17,6.81,3,1.88,8.86,1.88h4.12V284H718.14v-1.58h4q6.67,0,9.56-2.4,1.64-1.32,1.63-6.29V236.27q0-5.47-2.18-6.81-3-1.87-9-1.88h-4V226h38.4q16.79,0,24.76,1.35a35.33,35.33,0,0,1,13.52,5q5.56,3.62,5.56,8.62,0,5.34-6.33,9.28t-19.63,5.56l21.76,16.64q7.47,5.73,12.83,7.61a52.32,52.32,0,0,0,14,2.4Zm-74.85-29.81c1,0,1.83,0,2.56,0l1.79,0q15.07,0,22.73-3.59t7.66-9.16q0-5.43-6.18-8.83t-16.36-3.4q-4.51,0-12.2.81Z" class="nyuerkUO_4"></path><path d="M903,301c0-2.59-2-9.94-4.31-15.52l-7.23-17.2h-46.3l-8.11,18.87c-2,4.65-2,.12-2,2.41a6,6,0,0,0,2.6,4.8q2.6,2.08,11.24,2.69v3.27H811.24v-3.27q7.49-1.32,9.7-3.44c3-2.82,5.32-.55,9-9.19l34.41-79s2-6.85,3.69-8.47c2.4-2.36,12.43-5.18,12.43-5.18L928,172l-48,31,36.68,82.48q5,12,9.13,15.56c2.73,2.38,35.19,18,72.19,29l-80-20c-7-1.76-22-4.68-22-4.68v-3.27Zm-14-39.25-15.62-37.21L883,216l-12,4-2.29-6.57-20.82,48.32Z" class="nyuerkUO_5"></path><path d="M559.44,178.13q-7.61-11.24-7.6-17.09,0-4.42,4.67-8.07t17.33-4.11V143L433.56,119.54h0c10.45.31,60.73,32.4,68.75,37.63s17.78,16.21,29.28,33L573.84,252l18.51-24.69Z" class="nyuerkUO_6"></path><path d="M672.71,345.41c-6.17-5-13.64-19-26.4-38l-46-68.67L580.8,263.26l36.39,55.07q7.6,11.24,8.71,13.93a19.78,19.78,0,0,1,1.42,7.27,10,10,0,0,1-2.14,5.94,12.93,12.93,0,0,1-5.46,4.35q-4.43,1.74-13.6,1.9v5.85L751,392.77h0C741.51,392.24,678.88,350.42,672.71,345.41Z" class="nyuerkUO_7"></path><path d="M224,312c2.41-1.49,5-12,5-19l-1-78.42q0-8.84-1.12-11.75c-.57-1.37-1.74-4.57-3.51-5.6C220.88,195.86,178,175,178,175l83,19v3.17H257a16.62,16.62,0,0,0-7.81,2,7.38,7.38,0,0,0-3.68,4.11,49.22,49.22,0,0,0-.94,6.74L233,207l11.5,7.74v35.44c1.14-1.09,9.06-4.72,15.75-10.9Q285.72,216,291,208.15a11.24,11.24,0,0,0,2.31-6,4.45,4.45,0,0,0-1.8-3.48q-1.8-1.5-6.09-1.5H282.8V194h42.71v3.17a25.52,25.52,0,0,0-6.86,1,35.51,35.51,0,0,0-7.55,3.65,73.79,73.79,0,0,0-11,8.7q-1.89,1.72-17.41,17.58L260,248l45,33c7,7,15.88,10.25,20.86,12.79a38.27,38.27,0,0,0,14.92,4.33v3.18H285.46v-3.18c3.32,0,5.7-.55,7.16-1.67a4.71,4.71,0,0,0,2.19-3.73A8.07,8.07,0,0,0,294,289c-.54-1.08-8-6.06-11-9l-38.5-27.76v37.47c0,2.14-.09,5.34-.16,8.63C244.32,299.5,233,308,233,308s11.25-3.78,11.25-2.68a27.35,27.35,0,0,0,.36,6.06,7.67,7.67,0,0,0,3.6,3.69,15.8,15.8,0,0,0,7.81,2.05H260v3.18L170,327S213.91,318.23,224,312Z" class="nyuerkUO_8"></path><path class="cls-1 nyuerkUO_9" d="M804.72,105L873,105L1034,52"></path><path class="cls-1 nyuerkUO_10" d="M823,146.17L727.5,143.5L760.83,105L701,105L479,378L413.85,378.03L449.08,347.5L347.21,347.5"></path><path class="cls-1 nyuerkUO_11" d="M124,407L239.47,378.11L347.21,378.06"></path><path class="cls-1 nyuerkUO_12" d="M610.5,191.5L668.23,119.54L681.95,128.42"></path><path class="cls-1 nyuerkUO_13" d="M512.96,339.96L522.5,347.5L566.5,292.5"></path><path class="cls-1 nyuerkUO_14" d="M701,105L607.5,89.5"></path><path class="cls-1 nyuerkUO_15" d="M479,378L579,410.43"></path><path class="cls-1 nyuerkUO_16" d="M579.5,414.5A10,10 0,1,1 599.5,414.5A10,10 0,1,1 579.5,414.5"></path><path class="cls-1 nyuerkUO_17" d="M347.5,378.5A10,10 0,1,1 367.5,378.5A10,10 0,1,1 347.5,378.5"></path><path class="cls-1 nyuerkUO_18" d="M327.5,347.5A10,10 0,1,1 347.5,347.5A10,10 0,1,1 327.5,347.5"></path><path class="cls-1 nyuerkUO_19" d="M585.5,88.5A10,10 0,1,1 605.5,88.5A10,10 0,1,1 585.5,88.5"></path><path class="cls-1 nyuerkUO_20" d="M782.5,105.5A10,10 0,1,1 802.5,105.5A10,10 0,1,1 782.5,105.5"></path><path class="cls-1 nyuerkUO_21" d="M103.5,410.5A10,10 0,1,1 123.5,410.5A10,10 0,1,1 103.5,410.5"></path><path class="cls-1 nyuerkUO_22" d="M144,128L259.47,156.89L367.21,156.94"></path><path class="cls-1 nyuerkUO_23" d="M367.5,156.5A10,10 0,1,1 387.5,156.5A10,10 0,1,1 367.5,156.5"></path><path class="cls-1 nyuerkUO_24" d="M123.5,124.5A10,10 0,1,1 143.5,124.5A10,10 0,1,1 123.5,124.5"></path><path class="cls-1 nyuerkUO_25" d="M822.5,145.5A10,10 0,1,1 842.5,145.5A10,10 0,1,1 822.5,145.5"></path><path class="cls-1 nyuerkUO_26" d="M1033.5,48.5A10,10 0,1,1 1053.5,48.5A10,10 0,1,1 1033.5,48.5"></path><path class="cls-1 nyuerkUO_27" d="M804.72,338L873,338L1034,391"></path><path class="cls-1 nyuerkUO_28" d="M782.5,337.5A10,10 0,1,1 802.5,337.5A10,10 0,1,1 782.5,337.5"></path><path class="cls-1 nyuerkUO_29" d="M1033.5,394.5A10,10 0,1,1 1053.5,394.5A10,10 0,1,1 1033.5,394.5"></path><path class="cls-1 nyuerkUO_30" d="M597.5,198.5A8,8 0,1,1 613.5,198.5A8,8 0,1,1 597.5,198.5"></path><path class="cls-1 nyuerkUO_31" d="M565.5,284.5A8,8 0,1,1 581.5,284.5A8,8 0,1,1 565.5,284.5"></path><style data-made-with="vivus-instant">.nyuerkUO_0{stroke-dasharray:248 250;stroke-dashoffset:249;animation:nyuerkUO_draw_0 5000ms linear 0ms infinite,nyuerkUO_fade 5000ms linear 0ms infinite;}.nyuerkUO_1{stroke-dasharray:346 348;stroke-dashoffset:347;animation:nyuerkUO_draw_1 5000ms linear 0ms infinite,nyuerkUO_fade 5000ms linear 0ms infinite;}.nyuerkUO_2{stroke-dasharray:346 348;stroke-dashoffset:347;animation:nyuerkUO_draw_2 5000ms linear 0ms infinite,nyuerkUO_fade 5000ms linear 0ms infinite;}.nyuerkUO_3{stroke-dasharray:374 376;stroke-dashoffset:375;animation:nyuerkUO_draw_3 5000ms linear 0ms infinite,nyuerkUO_fade 5000ms linear 0ms infinite;}.nyuerkUO_4{stroke-dasharray:535 537;stroke-dashoffset:536;animation:nyuerkUO_draw_4 5000ms linear 0ms infinite,nyuerkUO_fade 5000ms linear 0ms infinite;}.nyuerkUO_5{stroke-dasharray:877 879;stroke-dashoffset:878;animation:nyuerkUO_draw_5 5000ms linear 0ms infinite,nyuerkUO_fade 5000ms linear 0ms infinite;}.nyuerkUO_6{stroke-dasharray:483 485;stroke-dashoffset:484;animation:nyuerkUO_draw_6 5000ms linear 0ms infinite,nyuerkUO_fade 5000ms linear 0ms infinite;}.nyuerkUO_7{stroke-dasharray:525 527;stroke-dashoffset:526;animation:nyuerkUO_draw_7 5000ms linear 0ms infinite,nyuerkUO_fade 5000ms linear 0ms infinite;}.nyuerkUO_8{stroke-dasharray:1039 1041;stroke-dashoffset:1040;animation:nyuerkUO_draw_8 5000ms linear 0ms infinite,nyuerkUO_fade 5000ms linear 0ms infinite;}.nyuerkUO_9{stroke-dasharray:238 240;stroke-dashoffset:239;animation:nyuerkUO_draw_9 5000ms linear 0ms infinite,nyuerkUO_fade 5000ms linear 0ms infinite;}.nyuerkUO_10{stroke-dasharray:772 774;stroke-dashoffset:773;animation:nyuerkUO_draw_10 5000ms linear 0ms infinite,nyuerkUO_fade 5000ms linear 0ms infinite;}.nyuerkUO_11{stroke-dasharray:227 229;stroke-dashoffset:228;animation:nyuerkUO_draw_11 5000ms linear 0ms infinite,nyuerkUO_fade 5000ms linear 0ms infinite;}.nyuerkUO_12{stroke-dasharray:109 111;stroke-dashoffset:110;animation:nyuerkUO_draw_12 5000ms linear 0ms infinite,nyuerkUO_fade 5000ms linear 0ms infinite;}.nyuerkUO_13{stroke-dasharray:83 85;stroke-dashoffset:84;animation:nyuerkUO_draw_13 5000ms linear 0ms infinite,nyuerkUO_fade 5000ms linear 0ms infinite;}.nyuerkUO_14{stroke-dasharray:95 97;stroke-dashoffset:96;animation:nyuerkUO_draw_14 5000ms linear 0ms infinite,nyuerkUO_fade 5000ms linear 0ms infinite;}.nyuerkUO_15{stroke-dasharray:106 108;stroke-dashoffset:107;animation:nyuerkUO_draw_15 5000ms linear 0ms infinite,nyuerkUO_fade 5000ms linear 0ms infinite;}.nyuerkUO_16{stroke-dasharray:63 65;stroke-dashoffset:64;animation:nyuerkUO_draw_16 5000ms linear 0ms infinite,nyuerkUO_fade 5000ms linear 0ms infinite;}.nyuerkUO_17{stroke-dasharray:63 65;stroke-dashoffset:64;animation:nyuerkUO_draw_17 5000ms linear 0ms infinite,nyuerkUO_fade 5000ms linear 0ms infinite;}.nyuerkUO_18{stroke-dasharray:63 65;stroke-dashoffset:64;animation:nyuerkUO_draw_18 5000ms linear 0ms infinite,nyuerkUO_fade 5000ms linear 0ms infinite;}.nyuerkUO_19{stroke-dasharray:63 65;stroke-dashoffset:64;animation:nyuerkUO_draw_19 5000ms linear 0ms infinite,nyuerkUO_fade 5000ms linear 0ms infinite;}.nyuerkUO_20{stroke-dasharray:63 65;stroke-dashoffset:64;animation:nyuerkUO_draw_20 5000ms linear 0ms infinite,nyuerkUO_fade 5000ms linear 0ms infinite;}.nyuerkUO_21{stroke-dasharray:63 65;stroke-dashoffset:64;animation:nyuerkUO_draw_21 5000ms linear 0ms infinite,nyuerkUO_fade 5000ms linear 0ms infinite;}.nyuerkUO_22{stroke-dasharray:227 229;stroke-dashoffset:228;animation:nyuerkUO_draw_22 5000ms linear 0ms infinite,nyuerkUO_fade 5000ms linear 0ms infinite;}.nyuerkUO_23{stroke-dasharray:63 65;stroke-dashoffset:64;animation:nyuerkUO_draw_23 5000ms linear 0ms infinite,nyuerkUO_fade 5000ms linear 0ms infinite;}.nyuerkUO_24{stroke-dasharray:63 65;stroke-dashoffset:64;animation:nyuerkUO_draw_24 5000ms linear 0ms infinite,nyuerkUO_fade 5000ms linear 0ms infinite;}.nyuerkUO_25{stroke-dasharray:63 65;stroke-dashoffset:64;animation:nyuerkUO_draw_25 5000ms linear 0ms infinite,nyuerkUO_fade 5000ms linear 0ms infinite;}.nyuerkUO_26{stroke-dasharray:63 65;stroke-dashoffset:64;animation:nyuerkUO_draw_26 5000ms linear 0ms infinite,nyuerkUO_fade 5000ms linear 0ms infinite;}.nyuerkUO_27{stroke-dasharray:238 240;stroke-dashoffset:239;animation:nyuerkUO_draw_27 5000ms linear 0ms infinite,nyuerkUO_fade 5000ms linear 0ms infinite;}.nyuerkUO_28{stroke-dasharray:63 65;stroke-dashoffset:64;animation:nyuerkUO_draw_28 5000ms linear 0ms infinite,nyuerkUO_fade 5000ms linear 0ms infinite;}.nyuerkUO_29{stroke-dasharray:63 65;stroke-dashoffset:64;animation:nyuerkUO_draw_29 5000ms linear 0ms infinite,nyuerkUO_fade 5000ms linear 0ms infinite;}.nyuerkUO_30{stroke-dasharray:51 53;stroke-dashoffset:52;animation:nyuerkUO_draw_30 5000ms linear 0ms infinite,nyuerkUO_fade 5000ms linear 0ms infinite;}.nyuerkUO_31{stroke-dasharray:51 53;stroke-dashoffset:52;animation:nyuerkUO_draw_31 5000ms linear 0ms infinite,nyuerkUO_fade 5000ms linear 0ms infinite;}@keyframes nyuerkUO_draw{100%{stroke-dashoffset:0;}}@keyframes nyuerkUO_fade{0%{stroke-opacity:1;}92%{stroke-opacity:1;}100%{stroke-opacity:0;}}@keyframes nyuerkUO_draw_0{16%{stroke-dashoffset: 249}26.666666666666668%{ stroke-dashoffset: 0;}100%{ stroke-dashoffset: 0;}}@keyframes nyuerkUO_draw_1{16.172043010752688%{stroke-dashoffset: 347}26.838709677419352%{ stroke-dashoffset: 0;}100%{ stroke-dashoffset: 0;}}@keyframes nyuerkUO_draw_2{16.344086021505376%{stroke-dashoffset: 347}27.01075268817204%{ stroke-dashoffset: 0;}100%{ stroke-dashoffset: 0;}}@keyframes nyuerkUO_draw_3{16.516129032258064%{stroke-dashoffset: 375}27.18279569892473%{ stroke-dashoffset: 0;}100%{ stroke-dashoffset: 0;}}@keyframes nyuerkUO_draw_4{16.688172043010752%{stroke-dashoffset: 536}27.354838709677416%{ stroke-dashoffset: 0;}100%{ stroke-dashoffset: 0;}}@keyframes nyuerkUO_draw_5{16.86021505376344%{stroke-dashoffset: 878}27.526881720430108%{ stroke-dashoffset: 0;}100%{ stroke-dashoffset: 0;}}@keyframes nyuerkUO_draw_6{17.032258064516128%{stroke-dashoffset: 484}27.698924731182796%{ stroke-dashoffset: 0;}100%{ stroke-dashoffset: 0;}}@keyframes nyuerkUO_draw_7{17.20430107526882%{stroke-dashoffset: 526}27.87096774193548%{ stroke-dashoffset: 0;}100%{ stroke-dashoffset: 0;}}@keyframes nyuerkUO_draw_8{17.376344086021504%{stroke-dashoffset: 1040}28.04301075268817%{ stroke-dashoffset: 0;}100%{ stroke-dashoffset: 0;}}@keyframes nyuerkUO_draw_9{17.548387096774196%{stroke-dashoffset: 239}28.21505376344086%{ stroke-dashoffset: 0;}100%{ stroke-dashoffset: 0;}}@keyframes nyuerkUO_draw_10{17.72043010752688%{stroke-dashoffset: 773}28.387096774193548%{ stroke-dashoffset: 0;}100%{ stroke-dashoffset: 0;}}@keyframes nyuerkUO_draw_11{17.892473118279568%{stroke-dashoffset: 228}28.559139784946236%{ stroke-dashoffset: 0;}100%{ stroke-dashoffset: 0;}}@keyframes nyuerkUO_draw_12{18.06451612903226%{stroke-dashoffset: 110}28.731182795698924%{ stroke-dashoffset: 0;}100%{ stroke-dashoffset: 0;}}@keyframes nyuerkUO_draw_13{18.236559139784948%{stroke-dashoffset: 84}28.90322580645161%{ stroke-dashoffset: 0;}100%{ stroke-dashoffset: 0;}}@keyframes nyuerkUO_draw_14{18.408602150537636%{stroke-dashoffset: 96}29.075268817204304%{ stroke-dashoffset: 0;}100%{ stroke-dashoffset: 0;}}@keyframes nyuerkUO_draw_15{18.58064516129032%{stroke-dashoffset: 107}29.24731182795699%{ stroke-dashoffset: 0;}100%{ stroke-dashoffset: 0;}}@keyframes nyuerkUO_draw_16{18.752688172043012%{stroke-dashoffset: 64}29.419354838709676%{ stroke-dashoffset: 0;}100%{ stroke-dashoffset: 0;}}@keyframes nyuerkUO_draw_17{18.9247311827957%{stroke-dashoffset: 64}29.591397849462364%{ stroke-dashoffset: 0;}100%{ stroke-dashoffset: 0;}}@keyframes nyuerkUO_draw_18{19.096774193548388%{stroke-dashoffset: 64}29.763440860215052%{ stroke-dashoffset: 0;}100%{ stroke-dashoffset: 0;}}@keyframes nyuerkUO_draw_19{19.268817204301076%{stroke-dashoffset: 64}29.935483870967744%{ stroke-dashoffset: 0;}100%{ stroke-dashoffset: 0;}}@keyframes nyuerkUO_draw_20{19.440860215053764%{stroke-dashoffset: 64}30.107526881720425%{ stroke-dashoffset: 0;}100%{ stroke-dashoffset: 0;}}@keyframes nyuerkUO_draw_21{19.612903225806452%{stroke-dashoffset: 64}30.27956989247312%{ stroke-dashoffset: 0;}100%{ stroke-dashoffset: 0;}}@keyframes nyuerkUO_draw_22{19.78494623655914%{stroke-dashoffset: 228}30.451612903225804%{ stroke-dashoffset: 0;}100%{ stroke-dashoffset: 0;}}@keyframes nyuerkUO_draw_23{19.956989247311828%{stroke-dashoffset: 64}30.623655913978492%{ stroke-dashoffset: 0;}100%{ stroke-dashoffset: 0;}}@keyframes nyuerkUO_draw_24{20.129032258064516%{stroke-dashoffset: 64}30.79569892473118%{ stroke-dashoffset: 0;}100%{ stroke-dashoffset: 0;}}@keyframes nyuerkUO_draw_25{20.301075268817208%{stroke-dashoffset: 64}30.967741935483872%{ stroke-dashoffset: 0;}100%{ stroke-dashoffset: 0;}}@keyframes nyuerkUO_draw_26{20.473118279569892%{stroke-dashoffset: 64}31.13978494623656%{ stroke-dashoffset: 0;}100%{ stroke-dashoffset: 0;}}@keyframes nyuerkUO_draw_27{20.64516129032258%{stroke-dashoffset: 239}31.311827956989248%{ stroke-dashoffset: 0;}100%{ stroke-dashoffset: 0;}}@keyframes nyuerkUO_draw_28{20.81720430107527%{stroke-dashoffset: 64}31.48387096774194%{ stroke-dashoffset: 0;}100%{ stroke-dashoffset: 0;}}@keyframes nyuerkUO_draw_29{20.989247311827956%{stroke-dashoffset: 64}31.65591397849462%{ stroke-dashoffset: 0;}100%{ stroke-dashoffset: 0;}}@keyframes nyuerkUO_draw_30{21.161290322580644%{stroke-dashoffset: 52}31.82795698924731%{ stroke-dashoffset: 0;}100%{ stroke-dashoffset: 0;}}@keyframes nyuerkUO_draw_31{21.333333333333336%{stroke-dashoffset: 52}32%{ stroke-dashoffset: 0;}100%{ stroke-dashoffset: 0;}}</style></svg>
