<?xml version="1.0" encoding="UTF-8"?>
<svg id="Layer_1" data-name="Layer 1" xmlns="http://www.w3.org/2000/svg" viewBox="0 0 955 391">
  <defs>
    <style>
      .cls-1 {
        fill: #fff;
        stroke-width: 0px;
      }

      .cls-2 {
        fill: none;
        stroke: #fff;
        stroke-linecap: round;
        stroke-miterlimit: 10;
        stroke-width: 5px;
      }
    </style>
  </defs>
  <path class="cls-1" d="M271.5,248.34v1.66h-41.12v-1.66h3.4c3.96,0,6.84-.74,8.63-2.21,1.13-.96,1.69-3.27,1.7-6.93v-39.41c0-3.09-.31-5.13-.92-6.12-.74-.94-1.75-1.61-2.9-1.93-2.09-.72-4.29-1.09-6.51-1.08h-3.4v-1.66h41.12v1.67h-3.5c-3.92,0-6.77.73-8.56,2.2-1.18.96-1.77,3.27-1.77,6.93v39.4c0,3.09.3,5.13.92,6.12.76.95,1.82,1.64,3,1.94,2.07.73,4.25,1.09,6.44,1.08h3.47Z"/>
  <path class="cls-1" d="M359.13,233.13l2.33.31-8.21,16.56h-74.31v-1.66h3.61c4.06,0,6.96-.84,8.7-2.52.99-.96,1.49-3.18,1.49-6.66v-39.37c0-3.81-.67-6.2-2-7.15-1.84-1.33-4.58-2-8.21-2h-3.61v-1.64h43.45v1.67c-5.09,0-8.67.27-10.72.9-1.61.37-3.07,1.19-4.21,2.38-.75,1-1.13,3.25-.13,6.88v38.34c-1,2.49-.62,4.2.13,5.13.72.71,1.63,1.19,2.62,1.39,1.18.3,4.85.45,11,.45h7c7.33,0,12.5-.33,15.5-1,2.93-.68,5.69-1.92,8.14-3.67,2.97-2.3,5.48-5.13,7.43-8.34Z"/>
  <path class="cls-1" d="M446.66,233.13l2.34.31-8.21,16.56h-74.31v-1.66h3.61c4.05,0,7-.84,8.7-2.52.99-.96,1.48-3.18,1.49-6.66v-39.37c0-3.81-.67-6.2-2-7.15-1.84-1.33-4.58-2-8.21-2h-3.61v-1.64h43.45v1.67c-5.09,0-8.67.27-10.72.9-1.61.36-3.07,1.19-4.21,2.38-.76,1-1.13,3.25-1.13,6.88v38.34c0,2.49.37,4.2,1.13,5.13.72.71,1.63,1.19,2.62,1.39,1.18.3,4.85.45,11,.45h7c7.33,0,12.5-.33,15.49-1,2.93-.67,5.7-1.92,8.14-3.67,2.97-2.3,5.49-5.12,7.43-8.34Z"/>
  <path class="cls-1" d="M610.29,190l1.17,13.6h-3c-.33-1.88-1.13-3.65-2.33-5.13-1.78-1.75-3.99-3.01-6.41-3.66-3.44-.87-6.98-1.27-10.53-1.17h-14.81v44.36c0,3.56.7,5.79,2.1,6.67,2,1.2,5.03,1.8,9.09,1.8h3.66v1.53h-44.7v-1.58h3.73c4.46,0,7.62-.74,9.49-2.23,1.13-.91,1.71-3,1.71-6.24v-44.31h-12.67c-3.51-.09-7.02.11-10.5.59-2.52.47-4.9,1.55-6.92,3.13-1.9,1.56-3.11,3.8-3.37,6.24h-3l1.24-13.6h86.05Z"/>
  <path class="cls-1" d="M722,248h-28.14l-35.68-27.12c-2.67.06-4.82.09-6.45.09h-2.17l-2.41-.07v16.85c0,3.65.72,5.92,2.17,6.81,2,1.25,4.95,1.88,8.86,1.88h4.12v1.56h-45.16v-1.58h4c4.45,0,7.63-.8,9.56-2.4,1.09-.88,1.64-2.98,1.63-6.29v-37.46c0-3.65-.73-5.92-2.18-6.81-2-1.25-5-1.87-9-1.88h-4v-1.58h38.4c11.19,0,19.45.45,24.76,1.35,4.8.72,9.4,2.42,13.52,5,3.71,2.41,5.56,5.29,5.56,8.62,0,3.56-2.11,6.65-6.33,9.28s-10.76,4.48-19.63,5.56l21.76,16.64c4.98,3.82,9.26,6.36,12.83,7.61,4.54,1.43,9.25,2.24,14,2.4l-.02,1.54ZM647.15,218.19h4.35c10.05,0,17.62-1.2,22.73-3.59,5.11-2.39,7.66-5.45,7.66-9.16s-2.06-6.56-6.18-8.83c-4.12-2.27-9.57-3.4-16.36-3.4-3.01,0-7.07.27-12.2.81v24.17Z"/>
  <path class="cls-1" d="M802,265c0-2.59-2-9.94-4.31-15.52l-7.23-17.2h-46.3l-8.11,18.87c-2,4.65-2,.12-2,2.41.05,1.92,1.01,3.71,2.6,4.8,1.73,1.39,5.48,2.28,11.24,2.69v3.27h-37.65v-3.27c4.99-.88,8.23-2.03,9.7-3.44,3-2.82,5.32-.55,9-9.19l34.41-79s2-6.85,3.69-8.47c2.4-2.36,12.43-5.18,12.43-5.18l47.53-19.77-48,31,36.68,82.48c3.33,8,6.38,13.19,9.13,15.56,2.73,2.38,35.19,18,72.19,29l-80-20c-7-1.76-22-4.68-22-4.68v-3.27l7-1.09ZM788,225.75l-15.62-37.21,9.62-8.54-12,4-2.29-6.57-20.82,48.32h41.11Z"/>
  <path class="cls-1" d="M458.44,142.13c-5.07-7.49-7.61-13.19-7.6-17.09,0-2.95,1.56-5.64,4.67-8.07s8.89-3.8,17.33-4.11v-5.86l-140.28-23.46h0c10.45.31,60.73,32.4,68.75,37.63s17.78,16.21,29.28,33l42.25,61.83,18.51-24.69-32.91-49.18Z"/>
  <path class="cls-1" d="M571.71,309.41c-6.17-5-13.64-19-26.4-38l-46-68.67-19.51,24.52,36.39,55.07c5.07,7.49,7.97,12.14,8.71,13.93.93,2.31,1.41,4.78,1.42,7.27-.05,2.16-.8,4.24-2.14,5.94-1.39,1.92-3.28,3.43-5.46,4.35-2.95,1.16-7.49,1.79-13.6,1.9v5.85l144.88,35.2h0c-9.49-.53-72.12-42.35-78.29-47.36Z"/>
  <path class="cls-1" d="M123,276c2.41-1.49,5-12,5-19l-1-78.42c0-5.89-.37-9.81-1.12-11.75-.57-1.37-1.74-4.57-3.51-5.6-2.49-1.37-45.37-22.23-45.37-22.23l83,19v3.17h-4c-2.73.02-5.41.7-7.81,2-1.71.84-3.03,2.32-3.68,4.11-.47,2.22-.78,4.47-.94,6.74l-11.57-3.02,11.5,7.74v35.44c1.14-1.09,9.06-4.72,15.75-10.9,16.98-15.52,27.23-25.9,30.75-31.13,1.34-1.73,2.14-3.82,2.31-6-.03-1.38-.69-2.66-1.8-3.48-1.2-1-3.23-1.5-6.09-1.5h-2.62v-3.17h42.71v3.17c-2.32.02-4.63.36-6.86,1-2.65.91-5.19,2.14-7.55,3.65-3.93,2.54-7.62,5.46-11,8.7-1.26,1.15-7.06,7.01-17.41,17.58l-22.69,19.9,45,33c7,7,15.88,10.25,20.86,12.79,4.62,2.45,9.7,3.92,14.92,4.33v3.18h-55.32v-3.18c3.32,0,5.7-.55,7.16-1.67,1.29-.81,2.11-2.21,2.19-3.73.03-1.29-.25-2.56-.81-3.72-.54-1.08-8-6.06-11-9l-38.5-27.76v37.47c0,2.14-.09,5.34-.16,8.63-.02,1.16-11.34,9.66-11.34,9.66,0,0,11.25-3.78,11.25-2.68-.11,2.03.02,4.06.36,6.06.74,1.61,2.01,2.91,3.6,3.69,2.38,1.35,5.07,2.05,7.81,2.05h3.98v3.18l-90,6.7s43.91-8.77,54-15Z"/>
  <path class="cls-2" d="M703.72,69h68.28l161-53"/>
  <path class="cls-2" d="M722,110.17l-95.5-2.67,33.33-38.5h-59.83l-222,273-65.15.03,35.23-30.53h-101.87"/>
  <path class="cls-2" d="M23,371l115.47-28.89,107.74-.05"/>
  <path class="cls-2" d="M509.5,155.5l57.73-71.96,13.72,8.88"/>
  <path class="cls-2" d="M411.96,303.96l9.54,7.54,44-55"/>
  <path class="cls-2" d="M600,69l-93.5-15.5"/>
  <path class="cls-2" d="M378,342l100,32.43"/>
  <path class="cls-2" d="M478.5,378.5c0-5.52,4.48-10,10-10s10,4.48,10,10-4.48,10-10,10-10-4.48-10-10"/>
  <path class="cls-2" d="M246.5,342.5c0-5.52,4.48-10,10-10s10,4.48,10,10-4.48,10-10,10-10-4.48-10-10"/>
  <path class="cls-2" d="M226.5,311.5c0-5.52,4.48-10,10-10s10,4.48,10,10-4.48,10-10,10-10-4.48-10-10"/>
  <path class="cls-2" d="M484.5,52.5c0-5.52,4.48-10,10-10s10,4.48,10,10-4.48,10-10,10-10-4.48-10-10"/>
  <path class="cls-2" d="M681.5,69.5c0-5.52,4.48-10,10-10s10,4.48,10,10-4.48,10-10,10-10-4.48-10-10"/>
  <path class="cls-2" d="M2.5,374.5c0-5.52,4.48-10,10-10s10,4.48,10,10-4.48,10-10,10-10-4.48-10-10"/>
  <path class="cls-2" d="M43,92l115.47,28.89,107.74.05"/>
  <path class="cls-2" d="M266.5,120.5c0-5.52,4.48-10,10-10s10,4.48,10,10-4.48,10-10,10-10-4.48-10-10"/>
  <path class="cls-2" d="M22.5,88.5c0-5.52,4.48-10,10-10s10,4.48,10,10-4.48,10-10,10-10-4.48-10-10"/>
  <path class="cls-2" d="M721.5,109.5c0-5.52,4.48-10,10-10s10,4.48,10,10-4.48,10-10,10-10-4.48-10-10"/>
  <path class="cls-2" d="M932.5,12.5c0-5.52,4.48-10,10-10s10,4.48,10,10-4.48,10-10,10-10-4.48-10-10"/>
  <path class="cls-2" d="M703.72,302h68.28l161,53"/>
  <path class="cls-2" d="M681.5,301.5c0-5.52,4.48-10,10-10s10,4.48,10,10-4.48,10-10,10-10-4.48-10-10"/>
  <path class="cls-2" d="M932.5,358.5c0-5.52,4.48-10,10-10s10,4.48,10,10-4.48,10-10,10-10-4.48-10-10"/>
  <path class="cls-2" d="M496.5,162.5c0-4.42,3.58-8,8-8s8,3.58,8,8-3.58,8-8,8-8-3.58-8-8"/>
  <path class="cls-2" d="M464.5,248.5c0-4.42,3.58-8,8-8s8,3.58,8,8-3.58,8-8,8-8-3.58-8-8"/>
</svg>